<svg width="900" height="700" viewBox="0 0 900 700" fill="none" xmlns="http://www.w3.org/2000/svg">
<g filter="url(#filter0_d_2019_9320)">
<rect x="358.561" y="73.4922" width="182.875" height="242.186" rx="91.4374" stroke="#7366D7" stroke-width="28"/>
</g>
<g filter="url(#filter1_d_2019_9320)">
<path d="M408.387 168.664V220.491" stroke="#7366D7" stroke-width="28" stroke-linecap="round"/>
</g>
<g filter="url(#filter2_d_2019_9320)">
<path d="M491.137 168.664V220.491" stroke="#7366D7" stroke-width="28" stroke-linecap="round"/>
</g>
<g filter="url(#filter3_d_2019_9320)">
<path d="M449.998 155.176L449.998 236.254" stroke="#7366D7" stroke-width="28" stroke-linecap="round"/>
</g>
<g filter="url(#filter4_d_2019_9320)">
<path d="M585.179 266.477C566.597 323.606 513.099 364.881 450 364.881C386.902 364.881 333.404 323.606 314.822 266.477" stroke="#7366D7" stroke-width="28" stroke-linecap="round"/>
</g>
<g filter="url(#filter5_d_2019_9320)">
<path fill-rule="evenodd" clip-rule="evenodd" d="M112.511 621.5C122.088 624.836 131.303 626.508 140.155 626.508C151.909 626.508 161.923 624.402 170.194 620.195C178.466 615.984 184.706 610.473 188.914 603.652C193.268 596.684 195.444 589.211 195.444 581.23C195.444 571.363 193.05 563.309 188.261 557.07C183.473 550.828 176.651 545.969 167.8 542.484L150.604 535.738C144.219 533.27 139.14 531.164 135.366 529.426C131.593 527.539 129.707 524.926 129.707 521.586C129.707 518.395 131.013 516 133.625 514.406C136.382 512.809 140.01 512.012 144.509 512.012C149.732 512.012 154.521 512.879 158.875 514.621C162.639 516.079 166.504 518.094 170.471 520.669C171.799 521.531 173.574 521.278 174.56 520.04L189.839 500.85C190.797 499.646 190.694 497.906 189.551 496.876C183.501 491.426 176.686 487.326 169.105 484.582C160.834 481.391 152.635 479.793 144.509 479.793C134.205 479.793 125.062 481.824 117.082 485.891C109.245 489.809 103.078 495.105 98.5791 501.777C94.0811 508.309 91.8311 515.637 91.8311 523.766C91.8311 533.922 94.6611 542.266 100.32 548.797C106.125 555.328 112.801 560.117 120.347 563.164L137.979 570.562C143.928 572.887 148.572 574.918 151.909 576.66C155.393 578.402 157.134 580.941 157.134 584.277C157.134 587.469 155.827 589.938 153.216 591.68C150.748 593.422 146.686 594.289 141.025 594.289C135.802 594.289 130.215 593.059 124.265 590.59C119.339 588.373 114.676 585.635 110.273 582.375C108.959 581.401 107.103 581.586 106.058 582.844L88.4631 604.028C87.4286 605.273 87.5653 607.119 88.8142 608.15C95.9392 614.027 103.838 618.479 112.511 621.5ZM221.181 482.406C219.524 482.406 218.181 483.749 218.181 485.406V620.895C218.181 622.551 219.524 623.895 221.181 623.895H252.621C254.278 623.895 255.621 622.551 255.621 620.895V582.055C255.621 580.398 256.964 579.055 258.621 579.055H270.858C280.727 579.055 289.941 577.312 298.503 573.828C307.21 570.348 314.176 564.977 319.399 557.723C324.769 550.32 327.453 540.887 327.453 529.426C327.453 517.523 324.769 508.164 319.399 501.344C314.176 494.523 307.21 489.66 298.503 486.758C289.796 483.855 280.291 482.406 269.987 482.406H221.181ZM269.117 549.449H258.621C256.964 549.449 255.621 548.106 255.621 546.449V515.012C255.621 513.355 256.964 512.012 258.621 512.012H268.246C275.502 512.012 281.089 513.316 285.007 515.93C288.925 518.539 290.884 523.039 290.884 529.426C290.884 535.664 289.07 540.598 285.442 544.227C281.96 547.707 276.518 549.449 269.117 549.449ZM377.769 564.906C375.824 564.906 374.393 563.084 374.855 561.194L376.342 555.109C378.083 548.289 379.824 540.887 381.566 532.906C383.272 525.088 384.838 517.686 386.266 510.704C386.317 510.451 386.54 510.27 386.799 510.27V510.27C387.049 510.27 387.267 510.44 387.327 510.684C389.034 517.672 390.742 525.081 392.45 532.906C394.191 540.887 395.933 548.289 397.674 555.109L399.161 561.194C399.623 563.084 398.192 564.906 396.247 564.906H377.769ZM367.245 482.406C365.925 482.406 364.76 483.269 364.375 484.532L323.103 620.02C322.516 621.948 323.958 623.895 325.973 623.895H357.85C359.246 623.895 360.458 622.932 360.773 621.572L366.661 596.178C366.976 594.818 368.187 593.855 369.583 593.855H404.432C405.828 593.855 407.04 594.818 407.355 596.178L413.244 621.572C413.559 622.932 414.77 623.895 416.166 623.895H449.348C451.363 623.895 452.805 621.948 452.218 620.02L410.946 484.532C410.562 483.269 409.397 482.406 408.077 482.406H367.245ZM492.628 618.672C502.931 623.895 514.104 626.508 526.149 626.508C535.292 626.508 543.854 624.766 551.835 621.281C559.076 618.123 565.482 613.528 571.051 607.502C572.043 606.428 572.047 604.788 571.111 603.665L555.293 584.685C554.146 583.308 552.06 583.244 550.723 584.437C548.195 586.692 545.3 588.744 542.039 590.59C537.831 593.059 532.97 594.289 527.455 594.289C518.313 594.289 510.912 590.734 505.253 583.625C499.738 576.367 496.981 566.137 496.981 552.934C496.981 544.371 498.359 537.043 501.117 530.949C504.02 524.852 507.792 520.211 512.436 517.016C517.225 513.68 522.376 512.012 527.891 512.012C532.68 512.012 536.888 513.027 540.516 515.059C543.435 516.518 546.268 518.324 549.013 520.478C550.347 521.524 552.289 521.37 553.363 520.057L569.296 500.586C570.262 499.406 570.195 497.683 569.079 496.644C564.476 492.357 558.873 488.628 552.271 485.453C544.869 481.68 536.452 479.793 527.02 479.793C518.168 479.793 509.606 481.465 501.334 484.801C493.208 487.992 485.88 492.781 479.35 499.168C472.964 505.551 467.885 513.387 464.112 522.676C460.484 531.816 458.67 542.34 458.67 554.238C458.67 570.348 461.79 583.77 468.03 594.508C474.271 605.246 482.47 613.301 492.628 618.672ZM595.309 482.406C593.652 482.406 592.309 483.749 592.309 485.406V620.895C592.309 622.551 593.652 623.895 595.309 623.895H682.908C684.565 623.895 685.908 622.551 685.908 620.895V595.551C685.908 593.894 684.565 592.551 682.908 592.551H632.749C631.092 592.551 629.749 591.208 629.749 589.551V570.301C629.749 568.644 631.092 567.301 632.749 567.301H672.896C674.552 567.301 675.896 565.958 675.896 564.301V538.953C675.896 537.296 674.552 535.953 672.896 535.953H632.749C631.092 535.953 629.749 534.61 629.749 532.953V516.75C629.749 515.093 631.092 513.75 632.749 513.75H680.731C682.388 513.75 683.731 512.407 683.731 510.75V485.406C683.731 483.749 682.388 482.406 680.731 482.406H595.309ZM730.459 621.5C740.036 624.836 749.251 626.508 758.104 626.508C769.857 626.508 779.871 624.402 788.143 620.195C796.414 615.984 802.654 610.473 806.862 603.652C811.216 596.684 813.393 589.211 813.393 581.23C813.393 571.363 810.998 563.309 806.209 557.07C801.421 550.828 794.6 545.969 785.748 542.484L768.552 535.738C762.167 533.27 757.088 531.164 753.314 529.426C749.541 527.539 747.655 524.926 747.655 521.586C747.655 518.395 748.961 516 751.573 514.406C754.33 512.809 757.958 512.012 762.457 512.012C767.681 512.012 772.47 512.879 776.823 514.621C780.587 516.079 784.452 518.094 788.419 520.669C789.747 521.531 791.523 521.278 792.509 520.04L807.787 500.85C808.745 499.646 808.642 497.906 807.499 496.876C801.449 491.426 794.634 487.326 787.054 484.582C778.782 481.391 770.583 479.793 762.457 479.793C752.153 479.793 743.012 481.824 735.03 485.891C727.193 489.809 721.026 495.105 716.527 501.777C712.029 508.309 709.779 515.637 709.779 523.766C709.779 533.922 712.609 542.266 718.269 548.797C724.073 555.328 730.749 560.117 738.295 563.164L755.927 570.562C761.876 572.887 766.521 574.918 769.857 576.66C773.341 578.402 775.082 580.941 775.082 584.277C775.082 587.469 773.776 589.938 771.164 591.68C769.856 592.602 768.101 593.281 765.896 593.715C763.941 594.098 761.634 594.289 758.974 594.289C753.75 594.289 748.163 593.059 742.213 590.59C737.288 588.373 732.624 585.635 728.221 582.375C726.907 581.401 725.051 581.586 724.006 582.844L706.411 604.027C705.377 605.273 705.514 607.119 706.763 608.15C713.888 614.027 721.787 618.479 730.459 621.5Z" stroke="#7366D7" stroke-width="12"/>
</g>
<g filter="url(#filter6_f_2019_9320)">
<rect x="358.561" y="73.4922" width="182.875" height="242.186" rx="91.4374" stroke="white" stroke-width="5"/>
</g>
<g filter="url(#filter7_f_2019_9320)">
<path d="M408.387 168.664V220.491" stroke="white" stroke-width="5" stroke-linecap="round"/>
</g>
<g filter="url(#filter8_f_2019_9320)">
<path d="M491.137 168.664V220.491" stroke="white" stroke-width="5" stroke-linecap="round"/>
</g>
<g filter="url(#filter9_f_2019_9320)">
<path d="M449.998 155.176L449.998 236.254" stroke="white" stroke-width="5" stroke-linecap="round"/>
</g>
<g filter="url(#filter10_f_2019_9320)">
<path d="M585.179 266.477C566.597 323.606 513.099 364.881 450 364.881C386.902 364.881 333.404 323.606 314.822 266.477" stroke="white" stroke-width="5" stroke-linecap="round"/>
</g>
<g filter="url(#filter11_f_2019_9320)">
<path fill-rule="evenodd" clip-rule="evenodd" d="M112.511 621.5C122.088 624.836 131.303 626.508 140.155 626.508C151.909 626.508 161.923 624.402 170.194 620.195C178.466 615.984 184.706 610.473 188.914 603.652C193.268 596.684 195.444 589.211 195.444 581.23C195.444 571.363 193.05 563.309 188.261 557.07C183.473 550.828 176.651 545.969 167.8 542.484L150.604 535.738C144.219 533.27 139.14 531.164 135.366 529.426C131.593 527.539 129.707 524.926 129.707 521.586C129.707 518.395 131.013 516 133.625 514.406C136.382 512.809 140.01 512.012 144.509 512.012C149.732 512.012 154.521 512.879 158.875 514.621C162.639 516.079 166.504 518.094 170.471 520.669C171.799 521.531 173.574 521.278 174.56 520.04L189.839 500.85C190.797 499.646 190.694 497.906 189.551 496.876C183.501 491.426 176.686 487.326 169.105 484.582C160.834 481.391 152.635 479.793 144.509 479.793C134.205 479.793 125.062 481.824 117.082 485.891C109.245 489.809 103.078 495.105 98.5791 501.777C94.0811 508.309 91.8311 515.637 91.8311 523.766C91.8311 533.922 94.6611 542.266 100.32 548.797C106.125 555.328 112.801 560.117 120.347 563.164L137.979 570.562C143.928 572.887 148.572 574.918 151.909 576.66C155.393 578.402 157.134 580.941 157.134 584.277C157.134 587.469 155.827 589.938 153.216 591.68C150.748 593.422 146.686 594.289 141.025 594.289C135.802 594.289 130.215 593.059 124.265 590.59C119.339 588.373 114.676 585.635 110.273 582.375C108.959 581.401 107.103 581.586 106.058 582.844L88.4631 604.028C87.4286 605.273 87.5653 607.119 88.8142 608.15C95.9392 614.027 103.838 618.479 112.511 621.5ZM221.181 482.406C219.524 482.406 218.181 483.749 218.181 485.406V620.895C218.181 622.551 219.524 623.895 221.181 623.895H252.621C254.278 623.895 255.621 622.551 255.621 620.895V582.055C255.621 580.398 256.964 579.055 258.621 579.055H270.858C280.727 579.055 289.941 577.312 298.503 573.828C307.21 570.348 314.176 564.977 319.399 557.723C324.769 550.32 327.453 540.887 327.453 529.426C327.453 517.523 324.769 508.164 319.399 501.344C314.176 494.523 307.21 489.66 298.503 486.758C289.796 483.855 280.291 482.406 269.987 482.406H221.181ZM269.117 549.449H258.621C256.964 549.449 255.621 548.106 255.621 546.449V515.012C255.621 513.355 256.964 512.012 258.621 512.012H268.246C275.502 512.012 281.089 513.316 285.007 515.93C288.925 518.539 290.884 523.039 290.884 529.426C290.884 535.664 289.07 540.598 285.442 544.227C281.96 547.707 276.518 549.449 269.117 549.449ZM377.769 564.906C375.824 564.906 374.393 563.084 374.855 561.194L376.342 555.109C378.083 548.289 379.824 540.887 381.566 532.906C383.272 525.088 384.838 517.686 386.266 510.704C386.317 510.451 386.54 510.27 386.799 510.27V510.27C387.049 510.27 387.267 510.44 387.327 510.684C389.034 517.672 390.742 525.081 392.45 532.906C394.191 540.887 395.933 548.289 397.674 555.109L399.161 561.194C399.623 563.084 398.192 564.906 396.247 564.906H377.769ZM367.245 482.406C365.925 482.406 364.76 483.269 364.375 484.532L323.103 620.02C322.516 621.948 323.958 623.895 325.973 623.895H357.85C359.246 623.895 360.458 622.932 360.773 621.572L366.661 596.178C366.976 594.818 368.187 593.855 369.583 593.855H404.432C405.828 593.855 407.04 594.818 407.355 596.178L413.244 621.572C413.559 622.932 414.77 623.895 416.166 623.895H449.348C451.363 623.895 452.805 621.948 452.218 620.02L410.946 484.532C410.562 483.269 409.397 482.406 408.077 482.406H367.245ZM492.628 618.672C502.931 623.895 514.104 626.508 526.149 626.508C535.292 626.508 543.854 624.766 551.835 621.281C559.076 618.123 565.482 613.528 571.051 607.502C572.043 606.428 572.047 604.788 571.111 603.665L555.293 584.685C554.146 583.308 552.06 583.244 550.723 584.437C548.195 586.692 545.3 588.744 542.039 590.59C537.831 593.059 532.97 594.289 527.455 594.289C518.313 594.289 510.912 590.734 505.253 583.625C499.738 576.367 496.981 566.137 496.981 552.934C496.981 544.371 498.359 537.043 501.117 530.949C504.02 524.852 507.792 520.211 512.436 517.016C517.225 513.68 522.376 512.012 527.891 512.012C532.68 512.012 536.888 513.027 540.516 515.059C543.435 516.518 546.268 518.324 549.013 520.478C550.347 521.524 552.289 521.37 553.363 520.057L569.296 500.586C570.262 499.406 570.195 497.683 569.079 496.644C564.476 492.357 558.873 488.628 552.271 485.453C544.869 481.68 536.452 479.793 527.02 479.793C518.168 479.793 509.606 481.465 501.334 484.801C493.208 487.992 485.88 492.781 479.35 499.168C472.964 505.551 467.885 513.387 464.112 522.676C460.484 531.816 458.67 542.34 458.67 554.238C458.67 570.348 461.79 583.77 468.03 594.508C474.271 605.246 482.47 613.301 492.628 618.672ZM595.309 482.406C593.652 482.406 592.309 483.749 592.309 485.406V620.895C592.309 622.551 593.652 623.895 595.309 623.895H682.908C684.565 623.895 685.908 622.551 685.908 620.895V595.551C685.908 593.894 684.565 592.551 682.908 592.551H632.749C631.092 592.551 629.749 591.208 629.749 589.551V570.301C629.749 568.644 631.092 567.301 632.749 567.301H672.896C674.552 567.301 675.896 565.958 675.896 564.301V538.953C675.896 537.296 674.552 535.953 672.896 535.953H632.749C631.092 535.953 629.749 534.61 629.749 532.953V516.75C629.749 515.093 631.092 513.75 632.749 513.75H680.731C682.388 513.75 683.731 512.407 683.731 510.75V485.406C683.731 483.749 682.388 482.406 680.731 482.406H595.309ZM730.459 621.5C740.036 624.836 749.251 626.508 758.104 626.508C769.857 626.508 779.871 624.402 788.143 620.195C796.414 615.984 802.654 610.473 806.862 603.652C811.216 596.684 813.393 589.211 813.393 581.23C813.393 571.363 810.998 563.309 806.209 557.07C801.421 550.828 794.6 545.969 785.748 542.484L768.552 535.738C762.167 533.27 757.088 531.164 753.314 529.426C749.541 527.539 747.655 524.926 747.655 521.586C747.655 518.395 748.961 516 751.573 514.406C754.33 512.809 757.958 512.012 762.457 512.012C767.681 512.012 772.47 512.879 776.823 514.621C780.587 516.079 784.452 518.094 788.419 520.669C789.747 521.531 791.523 521.278 792.509 520.04L807.787 500.85C808.745 499.646 808.642 497.906 807.499 496.876C801.449 491.426 794.634 487.326 787.054 484.582C778.782 481.391 770.583 479.793 762.457 479.793C752.153 479.793 743.012 481.824 735.03 485.891C727.193 489.809 721.026 495.105 716.527 501.777C712.029 508.309 709.779 515.637 709.779 523.766C709.779 533.922 712.609 542.266 718.269 548.797C724.073 555.328 730.749 560.117 738.295 563.164L755.927 570.562C761.876 572.887 766.521 574.918 769.857 576.66C773.341 578.402 775.082 580.941 775.082 584.277C775.082 587.469 773.776 589.938 771.164 591.68C769.856 592.602 768.101 593.281 765.896 593.715C763.941 594.098 761.634 594.289 758.974 594.289C753.75 594.289 748.163 593.059 742.213 590.59C737.288 588.373 732.624 585.635 728.221 582.375C726.907 581.401 725.051 581.586 724.006 582.844L706.411 604.027C705.377 605.273 705.514 607.119 706.763 608.15C713.888 614.027 721.787 618.479 730.459 621.5Z" stroke="white" stroke-width="3"/>
</g>
<defs>
<filter id="filter0_d_2019_9320" x="286.561" y="1.49219" width="326.875" height="386.188" filterUnits="userSpaceOnUse" color-interpolation-filters="sRGB">
<feFlood flood-opacity="0" result="BackgroundImageFix"/>
<feColorMatrix in="SourceAlpha" type="matrix" values="0 0 0 0 0 0 0 0 0 0 0 0 0 0 0 0 0 0 127 0" result="hardAlpha"/>
<feOffset/>
<feGaussianBlur stdDeviation="29"/>
<feColorMatrix type="matrix" values="0 0 0 0 0.45098 0 0 0 0 0.4 0 0 0 0 0.843137 0 0 0 1 0"/>
<feBlend mode="normal" in2="BackgroundImageFix" result="effect1_dropShadow_2019_9320"/>
<feBlend mode="normal" in="SourceGraphic" in2="effect1_dropShadow_2019_9320" result="shape"/>
</filter>
<filter id="filter1_d_2019_9320" x="336.387" y="96.6641" width="144" height="195.828" filterUnits="userSpaceOnUse" color-interpolation-filters="sRGB">
<feFlood flood-opacity="0" result="BackgroundImageFix"/>
<feColorMatrix in="SourceAlpha" type="matrix" values="0 0 0 0 0 0 0 0 0 0 0 0 0 0 0 0 0 0 127 0" result="hardAlpha"/>
<feOffset/>
<feGaussianBlur stdDeviation="29"/>
<feColorMatrix type="matrix" values="0 0 0 0 0.45098 0 0 0 0 0.4 0 0 0 0 0.843137 0 0 0 1 0"/>
<feBlend mode="normal" in2="BackgroundImageFix" result="effect1_dropShadow_2019_9320"/>
<feBlend mode="normal" in="SourceGraphic" in2="effect1_dropShadow_2019_9320" result="shape"/>
</filter>
<filter id="filter2_d_2019_9320" x="419.137" y="96.6641" width="144" height="195.828" filterUnits="userSpaceOnUse" color-interpolation-filters="sRGB">
<feFlood flood-opacity="0" result="BackgroundImageFix"/>
<feColorMatrix in="SourceAlpha" type="matrix" values="0 0 0 0 0 0 0 0 0 0 0 0 0 0 0 0 0 0 127 0" result="hardAlpha"/>
<feOffset/>
<feGaussianBlur stdDeviation="29"/>
<feColorMatrix type="matrix" values="0 0 0 0 0.45098 0 0 0 0 0.4 0 0 0 0 0.843137 0 0 0 1 0"/>
<feBlend mode="normal" in2="BackgroundImageFix" result="effect1_dropShadow_2019_9320"/>
<feBlend mode="normal" in="SourceGraphic" in2="effect1_dropShadow_2019_9320" result="shape"/>
</filter>
<filter id="filter3_d_2019_9320" x="377.998" y="83.1758" width="144" height="225.078" filterUnits="userSpaceOnUse" color-interpolation-filters="sRGB">
<feFlood flood-opacity="0" result="BackgroundImageFix"/>
<feColorMatrix in="SourceAlpha" type="matrix" values="0 0 0 0 0 0 0 0 0 0 0 0 0 0 0 0 0 0 127 0" result="hardAlpha"/>
<feOffset/>
<feGaussianBlur stdDeviation="29"/>
<feColorMatrix type="matrix" values="0 0 0 0 0.45098 0 0 0 0 0.4 0 0 0 0 0.843137 0 0 0 1 0"/>
<feBlend mode="normal" in2="BackgroundImageFix" result="effect1_dropShadow_2019_9320"/>
<feBlend mode="normal" in="SourceGraphic" in2="effect1_dropShadow_2019_9320" result="shape"/>
</filter>
<filter id="filter4_d_2019_9320" x="242.818" y="194.473" width="414.364" height="242.41" filterUnits="userSpaceOnUse" color-interpolation-filters="sRGB">
<feFlood flood-opacity="0" result="BackgroundImageFix"/>
<feColorMatrix in="SourceAlpha" type="matrix" values="0 0 0 0 0 0 0 0 0 0 0 0 0 0 0 0 0 0 127 0" result="hardAlpha"/>
<feOffset/>
<feGaussianBlur stdDeviation="29"/>
<feColorMatrix type="matrix" values="0 0 0 0 0.45098 0 0 0 0 0.4 0 0 0 0 0.843137 0 0 0 1 0"/>
<feBlend mode="normal" in2="BackgroundImageFix" result="effect1_dropShadow_2019_9320"/>
<feBlend mode="normal" in="SourceGraphic" in2="effect1_dropShadow_2019_9320" result="shape"/>
</filter>
<filter id="filter5_d_2019_9320" x="33.7744" y="425.793" width="833.618" height="254.715" filterUnits="userSpaceOnUse" color-interpolation-filters="sRGB">
<feFlood flood-opacity="0" result="BackgroundImageFix"/>
<feColorMatrix in="SourceAlpha" type="matrix" values="0 0 0 0 0 0 0 0 0 0 0 0 0 0 0 0 0 0 127 0" result="hardAlpha"/>
<feOffset/>
<feGaussianBlur stdDeviation="24"/>
<feColorMatrix type="matrix" values="0 0 0 0 0.45098 0 0 0 0 0.4 0 0 0 0 0.843137 0 0 0 1 0"/>
<feBlend mode="normal" in2="BackgroundImageFix" result="effect1_dropShadow_2019_9320"/>
<feBlend mode="normal" in="SourceGraphic" in2="effect1_dropShadow_2019_9320" result="shape"/>
</filter>
<filter id="filter6_f_2019_9320" x="347.061" y="61.9922" width="205.875" height="265.188" filterUnits="userSpaceOnUse" color-interpolation-filters="sRGB">
<feFlood flood-opacity="0" result="BackgroundImageFix"/>
<feBlend mode="normal" in="SourceGraphic" in2="BackgroundImageFix" result="shape"/>
<feGaussianBlur stdDeviation="4.5" result="effect1_foregroundBlur_2019_9320"/>
</filter>
<filter id="filter7_f_2019_9320" x="396.887" y="157.164" width="23" height="74.8281" filterUnits="userSpaceOnUse" color-interpolation-filters="sRGB">
<feFlood flood-opacity="0" result="BackgroundImageFix"/>
<feBlend mode="normal" in="SourceGraphic" in2="BackgroundImageFix" result="shape"/>
<feGaussianBlur stdDeviation="4.5" result="effect1_foregroundBlur_2019_9320"/>
</filter>
<filter id="filter8_f_2019_9320" x="479.637" y="157.164" width="23" height="74.8281" filterUnits="userSpaceOnUse" color-interpolation-filters="sRGB">
<feFlood flood-opacity="0" result="BackgroundImageFix"/>
<feBlend mode="normal" in="SourceGraphic" in2="BackgroundImageFix" result="shape"/>
<feGaussianBlur stdDeviation="4.5" result="effect1_foregroundBlur_2019_9320"/>
</filter>
<filter id="filter9_f_2019_9320" x="438.498" y="143.676" width="23" height="104.078" filterUnits="userSpaceOnUse" color-interpolation-filters="sRGB">
<feFlood flood-opacity="0" result="BackgroundImageFix"/>
<feBlend mode="normal" in="SourceGraphic" in2="BackgroundImageFix" result="shape"/>
<feGaussianBlur stdDeviation="4.5" result="effect1_foregroundBlur_2019_9320"/>
</filter>
<filter id="filter10_f_2019_9320" x="303.321" y="254.977" width="293.358" height="121.406" filterUnits="userSpaceOnUse" color-interpolation-filters="sRGB">
<feFlood flood-opacity="0" result="BackgroundImageFix"/>
<feBlend mode="normal" in="SourceGraphic" in2="BackgroundImageFix" result="shape"/>
<feGaussianBlur stdDeviation="4.5" result="effect1_foregroundBlur_2019_9320"/>
</filter>
<filter id="filter11_f_2019_9320" x="81.2734" y="473.293" width="738.619" height="159.715" filterUnits="userSpaceOnUse" color-interpolation-filters="sRGB">
<feFlood flood-opacity="0" result="BackgroundImageFix"/>
<feBlend mode="normal" in="SourceGraphic" in2="BackgroundImageFix" result="shape"/>
<feGaussianBlur stdDeviation="2.5" result="effect1_foregroundBlur_2019_9320"/>
</filter>
</defs>
</svg>
